<svg width="67" height="68" viewBox="0 0 67 68" fill="none" xmlns="http://www.w3.org/2000/svg">
<g filter="url(#filter0_d_5_736)">
<rect width="64" height="64" rx="32" fill="#8CE6DB"/>
<rect x="0.5" y="0.5" width="63" height="63" rx="31.5" stroke="#133834"/>
<path d="M41.4 48H21.6C17.9549 48 15 45.045 15 41.4V21.6C15 17.9549 17.9549 15 21.6 15H41.4C45.045 15 48 17.9549 48 21.6V41.4C48 45.045 45.045 48 41.4 48ZM21.6 18.3C19.7775 18.3 18.3 19.7775 18.3 21.6V41.4C18.3 43.2226 19.7775 44.7 21.6 44.7H41.4C43.2226 44.7 44.7 43.2226 44.7 41.4V21.6C44.7 19.7775 43.2226 18.3 41.4 18.3H21.6ZM37.7073 39.3804C36.2654 39.4385 34.8627 38.9016 33.8281 37.8954C32.7563 36.6734 32.2065 35.0798 32.2969 33.4569C32.2638 31.8795 32.8264 30.3478 33.8727 29.1669C34.979 27.9973 36.532 27.3556 38.1412 27.4031C38.2914 27.4031 38.4085 27.4031 38.5257 27.4031V24.1031C38.5257 23.8449 38.7344 23.6354 38.9927 23.6344H41.1657C41.2863 23.6299 41.4043 23.6712 41.4957 23.7499C41.586 23.8355 41.6353 23.9556 41.631 24.0799V36.7503C41.6232 37.1874 41.6452 37.6246 41.697 38.0588V38.0819V38.1C41.6995 38.2049 41.667 38.3077 41.6046 38.392C41.5506 38.4582 41.4825 38.5113 41.4049 38.5471C40.2598 39.0938 39.0075 39.3789 37.7386 39.382L37.7073 39.3804ZM36.1959 30.939L36.1876 30.9489C35.6651 31.6366 35.4021 32.4869 35.4451 33.3496C35.3773 34.2486 35.637 35.1417 36.1761 35.8643C36.617 36.3497 37.2519 36.6125 37.9069 36.5804C38.1149 36.583 38.3224 36.562 38.5257 36.5177V30.1668C38.3718 30.1338 38.2145 30.1178 38.0571 30.1189C37.3441 30.0998 36.6605 30.4029 36.1959 30.9439V30.939ZM31.8713 39.189H29.4771C29.2248 39.2055 28.9899 39.0595 28.893 38.826L28.5465 38.1L28.5382 38.0819L28.2 37.407L28.0944 37.1875C27.568 36.1018 27.0252 34.9832 26.4807 33.8314C25.7234 35.5095 24.9148 37.2387 24.1426 38.8326V38.8491L24.1344 38.8639C24.0792 38.9565 24.0021 39.0341 23.91 39.09C23.8163 39.1459 23.7089 39.1745 23.5998 39.1725H21.3376C21.1433 39.1821 20.9661 39.0615 20.9037 38.8772C20.8634 38.7387 20.8896 38.5894 20.9746 38.4729L24.6525 31.4422L21.0951 24.3242C20.9974 24.1828 20.9897 23.9979 21.0753 23.8489C21.1573 23.7143 21.3037 23.6323 21.4614 23.6328H23.8275C23.9424 23.6267 24.0568 23.653 24.1575 23.7087C24.2596 23.7715 24.3384 23.8659 24.3819 23.9776C25.2663 25.8339 26.0121 27.4426 26.6638 28.8699C27.474 27.0549 28.3353 25.2102 28.9128 23.9875L28.9211 23.9694L28.9309 23.9529V23.943V23.9347C28.9724 23.8642 29.024 23.8002 29.0844 23.745C29.1865 23.6598 29.3161 23.6146 29.449 23.6179H31.665C31.8381 23.6133 31.9978 23.7109 32.0725 23.8671C32.1316 24.0092 32.1176 24.1713 32.0346 24.3011L28.4755 31.2096L32.2409 38.4696C32.321 38.5973 32.3387 38.7547 32.2887 38.8969C32.225 39.072 32.0575 39.1878 31.8713 39.1857V39.189Z" fill="black"/>
</g>
<defs>
<filter id="filter0_d_5_736" x="0" y="0" width="67" height="68" filterUnits="userSpaceOnUse" color-interpolation-filters="sRGB">
<feFlood flood-opacity="0" result="BackgroundImageFix"/>
<feColorMatrix in="SourceAlpha" type="matrix" values="0 0 0 0 0 0 0 0 0 0 0 0 0 0 0 0 0 0 127 0" result="hardAlpha"/>
<feOffset dx="3" dy="4"/>
<feComposite in2="hardAlpha" operator="out"/>
<feColorMatrix type="matrix" values="0 0 0 0 0.0555986 0 0 0 0 0.149942 0 0 0 0 0.140011 0 0 0 1 0"/>
<feBlend mode="normal" in2="BackgroundImageFix" result="effect1_dropShadow_5_736"/>
<feBlend mode="normal" in="SourceGraphic" in2="effect1_dropShadow_5_736" result="shape"/>
</filter>
</defs>
</svg>
