<svg width="67" height="68" viewBox="0 0 67 68" fill="none" xmlns="http://www.w3.org/2000/svg">
<g filter="url(#filter0_d_5_738)">
<rect width="64" height="64" rx="32" fill="#8CE6DB"/>
<rect x="0.5" y="0.5" width="63" height="63" rx="31.5" stroke="#133834"/>
<path d="M31.5 48C22.3873 48 15 40.6126 15 31.5C15 22.3873 22.3873 15 31.5 15C40.6126 15 48 22.3873 48 31.5C47.9899 40.6085 40.6085 47.9899 31.5 48ZM24.4496 36.0985C24.2367 36.0999 24.0247 36.1253 23.8176 36.1744L23.5701 36.2421L22.59 37.9201C22.2182 38.5404 22.3976 39.3431 22.998 39.746C23.5984 40.149 24.4093 40.0107 24.8422 39.4315L24.9446 39.2781L26.2481 37.016C25.8198 36.4432 25.1482 36.1037 24.4331 36.0985H24.4496ZM33.4981 25.989C32.9848 26.4712 32.6444 27.1091 32.5296 27.804C32.3456 28.7622 32.5218 29.7546 33.0246 30.5909L38.0406 39.2798C38.2856 39.6941 38.7308 39.9487 39.2121 39.9496C39.4185 39.949 39.6221 39.9016 39.8077 39.8111C40.4438 39.4974 40.7314 38.747 40.4677 38.0884L40.3869 37.9234L39.0669 35.6283H41.0304C41.7439 35.6224 42.3309 35.0653 42.3745 34.353C42.4179 33.6409 41.9028 33.0167 41.1954 32.924L41.0304 32.9141H37.4994L33.8793 26.644L33.5014 25.984L33.4981 25.989ZM22.029 32.9025C21.8541 32.9027 21.681 32.9368 21.5192 33.0032C21.3552 33.0716 21.2061 33.1714 21.0802 33.2969C20.8261 33.5518 20.6836 33.8971 20.6843 34.2571C20.6845 34.9409 21.1925 35.5181 21.8706 35.6052L22.0356 35.6134H34.3776C34.6545 35.0567 34.6441 34.4004 34.3496 33.8529C34.0988 33.3396 33.6075 32.9858 33.0411 32.9107L32.8414 32.9009H28.6323L34.4535 22.821C34.6329 22.5085 34.6814 22.1379 34.5888 21.7897C34.4967 21.441 34.2684 21.1438 33.9552 20.9647C33.3661 20.6256 32.6171 20.7735 32.2013 21.3112L32.0989 21.463L31.5 22.5092L30.9076 21.463C30.6626 21.0488 30.2175 20.7942 29.7361 20.7931C29.5292 20.7939 29.325 20.8413 29.1389 20.9317C28.5031 21.2467 28.216 21.9971 28.4788 22.656L28.5597 22.821L29.9292 25.23L25.499 32.9025H22.029Z" fill="black"/>
</g>
<defs>
<filter id="filter0_d_5_738" x="0" y="0" width="67" height="68" filterUnits="userSpaceOnUse" color-interpolation-filters="sRGB">
<feFlood flood-opacity="0" result="BackgroundImageFix"/>
<feColorMatrix in="SourceAlpha" type="matrix" values="0 0 0 0 0 0 0 0 0 0 0 0 0 0 0 0 0 0 127 0" result="hardAlpha"/>
<feOffset dx="3" dy="4"/>
<feComposite in2="hardAlpha" operator="out"/>
<feColorMatrix type="matrix" values="0 0 0 0 0.0555986 0 0 0 0 0.149942 0 0 0 0 0.140011 0 0 0 1 0"/>
<feBlend mode="normal" in2="BackgroundImageFix" result="effect1_dropShadow_5_738"/>
<feBlend mode="normal" in="SourceGraphic" in2="effect1_dropShadow_5_738" result="shape"/>
</filter>
</defs>
</svg>
