<svg width="67" height="68" viewBox="0 0 67 68" fill="none" xmlns="http://www.w3.org/2000/svg">
<g filter="url(#filter0_d_5_740)">
<rect width="64" height="64" rx="32" fill="#8CE6DB"/>
<rect x="0.5" y="0.5" width="63" height="63" rx="31.5" stroke="#133834"/>
<path d="M26.8584 46C25.7667 45.9408 24.7394 45.4647 23.9884 44.6701C23.0901 43.8058 22.2885 42.8465 21.5977 41.8088C20.5186 40.2636 19.6657 38.5723 19.0646 36.786C18.3838 34.8643 18.0253 32.8434 18.0037 30.8047C17.9514 28.8045 18.4474 26.8279 19.4379 25.0892C20.1629 23.8358 21.197 22.7892 22.4415 22.0491C23.6723 21.3122 25.0767 20.9155 26.5112 20.8997C27.5925 20.9637 28.6552 21.2109 29.6537 21.6307C30.4499 21.981 31.2878 22.2272 32.1469 22.3633C33.0948 22.1647 34.0213 21.874 34.9126 21.4952C35.9677 21.0833 37.0848 20.8526 38.2166 20.8129C38.3677 20.8129 38.517 20.8129 38.6611 20.8303C41.143 20.9023 43.4515 22.1206 44.9114 24.1291C42.5901 25.3702 41.1647 27.812 41.2255 30.4436C41.2026 32.4395 42.0347 34.3499 43.5121 35.6922C44.1769 36.3257 44.951 36.8332 45.7969 37.1905C45.6233 37.7114 45.4236 38.2149 45.2118 38.7218C44.7304 39.8422 44.1364 40.9108 43.4391 41.9112C42.7809 42.9134 42.0148 43.8403 41.1543 44.6753C40.3688 45.4547 39.3219 45.9144 38.2166 45.9653C37.2798 45.9238 36.3592 45.704 35.5047 45.3177C34.5831 44.9163 33.5928 44.6963 32.5879 44.6701C31.5546 44.6904 30.535 44.9091 29.5842 45.3142C28.763 45.6847 27.8858 45.9153 26.9886 45.9965L26.8584 46ZM32.3274 20.8129C32.1972 20.8129 32.067 20.8129 31.9368 20.7973C31.9094 20.5906 31.8949 20.3825 31.8934 20.174C31.9502 18.4398 32.628 16.7836 33.8032 15.5071C34.46 14.7737 35.2562 14.1782 36.1453 13.7552C36.9751 13.3281 37.8817 13.0714 38.8122 13C38.8382 13.2274 38.8382 13.4497 38.8382 13.6615C38.8137 15.3684 38.1724 17.0089 37.0325 18.2798C35.9153 19.7778 34.193 20.705 32.3274 20.8129Z" fill="black"/>
</g>
<defs>
<filter id="filter0_d_5_740" x="0" y="0" width="67" height="68" filterUnits="userSpaceOnUse" color-interpolation-filters="sRGB">
<feFlood flood-opacity="0" result="BackgroundImageFix"/>
<feColorMatrix in="SourceAlpha" type="matrix" values="0 0 0 0 0 0 0 0 0 0 0 0 0 0 0 0 0 0 127 0" result="hardAlpha"/>
<feOffset dx="3" dy="4"/>
<feComposite in2="hardAlpha" operator="out"/>
<feColorMatrix type="matrix" values="0 0 0 0 0.0555986 0 0 0 0 0.149942 0 0 0 0 0.140011 0 0 0 1 0"/>
<feBlend mode="normal" in2="BackgroundImageFix" result="effect1_dropShadow_5_740"/>
<feBlend mode="normal" in="SourceGraphic" in2="effect1_dropShadow_5_740" result="shape"/>
</filter>
</defs>
</svg>
