<svg width="67" height="68" viewBox="0 0 67 68" fill="none" xmlns="http://www.w3.org/2000/svg">
<g filter="url(#filter0_d_5_742)">
<rect width="64" height="64" rx="32" fill="#8CE6DB"/>
<rect x="0.5" y="0.5" width="63" height="63" rx="31.5" stroke="#133834"/>
<path d="M41.8413 42.6765C40.7712 42.6899 39.7081 42.5012 38.7079 42.1207C37.8117 41.7723 37.0019 41.2331 36.3347 40.5408C35.6773 39.8333 35.1697 39.0003 34.8421 38.0917C34.4824 37.0867 34.3043 36.0256 34.316 34.9582C34.3085 33.9092 34.4917 32.8676 34.857 31.8841C35.1975 30.9672 35.7217 30.1292 36.3973 29.4219C37.0748 28.7233 37.8843 28.1661 38.7788 27.7826C39.7477 27.3727 40.7911 27.1689 41.843 27.1839C42.9735 27.1598 44.093 27.4087 45.1068 27.9096C46.0117 28.3737 46.7964 29.0416 47.3992 29.8606C48.0072 30.6972 48.4459 31.6445 48.6905 32.6494C48.9573 33.7176 49.0526 34.8215 48.9725 35.9197H38.3665C38.3243 36.9629 38.6818 37.9827 39.3659 38.7712C40.0846 39.4017 41.0243 39.7208 41.9782 39.6585C42.7275 39.676 43.4637 39.4611 44.0859 39.0433C44.5798 38.7418 44.959 38.2837 45.1628 37.7421H48.7169C48.3141 39.2737 47.3874 40.6158 46.0979 41.5353C44.8216 42.3247 43.3415 42.7215 41.8413 42.6765ZM41.7276 30.2349C41.1734 30.2142 40.6224 30.3273 40.1212 30.5648C39.7294 30.7623 39.3816 31.0373 39.0987 31.3729C38.8499 31.6778 38.6658 32.0303 38.5578 32.4086C38.4626 32.7239 38.4011 33.0485 38.3747 33.3767H44.9418C44.8945 32.5214 44.5685 31.7054 44.0133 31.0529C43.399 30.4731 42.5703 30.1764 41.7276 30.2349ZM25.8457 42.2939H16V22.0005H25.5654C26.4515 21.9927 27.336 22.0784 28.2041 22.2561C28.9394 22.3997 29.6401 22.6842 30.2672 23.0939C30.8337 23.4871 31.2884 24.0207 31.5866 24.6425C31.916 25.3915 32.0736 26.2045 32.0484 27.0223C32.0842 27.9271 31.8444 28.8213 31.3607 29.5868C30.8314 30.3176 30.1162 30.8933 29.2893 31.2541C30.4129 31.535 31.4006 32.2052 32.0764 33.1458C32.7043 34.1135 33.0219 35.2498 32.9868 36.4029C33.0107 37.3252 32.808 38.2392 32.3964 39.0648C32.0166 39.797 31.4656 40.4267 30.79 40.9003C30.0898 41.3875 29.3077 41.745 28.4812 41.9558C27.6182 42.1824 26.7297 42.2967 25.8375 42.2955L25.8457 42.2939ZM20.4693 33.2513V38.8421H25.2355C25.6568 38.8467 26.0772 38.804 26.4889 38.7151C26.8659 38.6424 27.2247 38.4955 27.5444 38.283C27.8524 38.0805 28.1024 37.8015 28.2701 37.4733C28.4645 37.0616 28.5562 36.6088 28.5372 36.1539C28.6172 35.3097 28.2901 34.478 27.6566 33.9143C26.973 33.4438 26.1533 33.2119 25.3246 33.2546L20.4693 33.2513ZM20.4693 25.4589V30.2003H24.9914C25.691 30.2278 26.3806 30.0283 26.9573 29.6313C27.5009 29.1799 27.7872 28.4895 27.7225 27.7859C27.7365 27.382 27.6503 26.9809 27.4718 26.6182C27.3106 26.3251 27.073 26.0812 26.7841 25.9124C26.48 25.732 26.1441 25.6117 25.7946 25.5578C25.414 25.4865 25.0274 25.4528 24.6402 25.4572L20.4693 25.4589ZM45.7697 25.3665H37.5402V23.3627H45.7697V25.3649V25.3665Z" fill="black"/>
</g>
<defs>
<filter id="filter0_d_5_742" x="0" y="0" width="67" height="68" filterUnits="userSpaceOnUse" color-interpolation-filters="sRGB">
<feFlood flood-opacity="0" result="BackgroundImageFix"/>
<feColorMatrix in="SourceAlpha" type="matrix" values="0 0 0 0 0 0 0 0 0 0 0 0 0 0 0 0 0 0 127 0" result="hardAlpha"/>
<feOffset dx="3" dy="4"/>
<feComposite in2="hardAlpha" operator="out"/>
<feColorMatrix type="matrix" values="0 0 0 0 0.0555986 0 0 0 0 0.149942 0 0 0 0 0.140011 0 0 0 1 0"/>
<feBlend mode="normal" in2="BackgroundImageFix" result="effect1_dropShadow_5_742"/>
<feBlend mode="normal" in="SourceGraphic" in2="effect1_dropShadow_5_742" result="shape"/>
</filter>
</defs>
</svg>
