<svg width="67" height="68" viewBox="0 0 67 68" fill="none" xmlns="http://www.w3.org/2000/svg">
<g filter="url(#filter0_d_5_682)">
<rect width="64" height="64" rx="32" fill="#8CE6DB"/>
<rect x="0.5" y="0.5" width="63" height="63" rx="31.5" stroke="#133834"/>
<path d="M46.875 48L43.3284 44.8737L41.3293 43.0153L39.2155 41.0526L40.0839 44.1077H21.3816C19.5087 44.101 17.9952 42.5783 18 40.7053V18.399C17.9971 16.5274 19.51 15.0067 21.3816 15H43.4934C45.365 15.0067 46.8779 16.5274 46.875 18.399V48ZM39.0158 33.2507C38.2835 34.2329 37.2291 34.9264 36.0371 35.2099C36.5269 35.8352 37.1174 36.5421 37.1226 36.549C39.115 36.591 41.0015 35.654 42.1716 34.041C42.1117 30.6971 41.2996 27.4096 39.7956 24.4224C38.4715 23.3833 36.8597 22.7769 35.1791 22.6855H35.16L34.929 22.9495C36.4301 23.3527 37.83 24.0663 39.0384 25.0442C37.5009 24.199 35.8139 23.661 34.071 23.4602C32.9632 23.3371 31.8449 23.3482 30.7397 23.4932C30.6616 23.4947 30.5838 23.5028 30.507 23.5175H30.4584C29.1633 23.6666 27.8997 24.0182 26.7137 24.5596C26.1197 24.8323 25.755 25.0303 25.7394 25.0372C25.7237 25.0442 25.7394 25.0372 25.7394 25.0251C27.021 24.0171 28.4995 23.2887 30.0797 22.887L29.9061 22.689H29.8956C28.2151 22.7806 26.6033 23.387 25.2791 24.4258C23.7696 27.411 22.9572 30.6998 22.9031 34.0445C24.0587 35.6682 25.9478 36.6089 27.94 36.5525C27.94 36.5525 28.5617 35.7952 29.0463 35.1821C27.8844 34.8901 26.8605 34.2022 26.151 33.2368C26.1632 33.2455 26.3351 33.3619 26.613 33.5147C26.6317 33.5366 26.6548 33.5545 26.6807 33.5668C26.7028 33.5821 26.726 33.5955 26.7502 33.6068C26.7777 33.6193 26.8039 33.6344 26.8284 33.6519C27.2159 33.8656 27.6181 34.0512 28.032 34.2077C28.8189 34.5193 29.6329 34.7576 30.4636 34.9198C31.191 35.0569 31.9293 35.1267 32.6694 35.1283C33.3632 35.1283 34.0557 35.0642 34.7379 34.9372C35.5596 34.7929 36.3621 34.5551 37.1296 34.2286C37.7927 33.9736 38.4253 33.6455 39.0158 33.2507ZM35.4761 32.5091C34.7204 32.5749 34.0019 32.1702 33.6665 31.4899C33.3313 30.8096 33.4478 29.9931 33.9604 29.4339C34.4729 28.8748 35.2762 28.6875 35.9831 28.9625C36.69 29.2374 37.1556 29.9183 37.1556 30.6767C37.1938 31.6457 36.4432 32.4641 35.4744 32.5091H35.4761ZM29.4527 32.5091C28.5024 32.4263 27.7732 31.6306 27.7732 30.6767C27.7732 29.7229 28.5024 28.9272 29.4527 28.8444C29.8905 28.8458 30.309 29.0243 30.6129 29.3394C30.9579 29.6973 31.1455 30.1781 31.134 30.675C31.1743 31.6457 30.4215 32.4659 29.451 32.5091H29.4527Z" fill="black"/>
</g>
<defs>
<filter id="filter0_d_5_682" x="0" y="0" width="67" height="68" filterUnits="userSpaceOnUse" color-interpolation-filters="sRGB">
<feFlood flood-opacity="0" result="BackgroundImageFix"/>
<feColorMatrix in="SourceAlpha" type="matrix" values="0 0 0 0 0 0 0 0 0 0 0 0 0 0 0 0 0 0 127 0" result="hardAlpha"/>
<feOffset dx="3" dy="4"/>
<feComposite in2="hardAlpha" operator="out"/>
<feColorMatrix type="matrix" values="0 0 0 0 0.0555986 0 0 0 0 0.149942 0 0 0 0 0.140011 0 0 0 1 0"/>
<feBlend mode="normal" in2="BackgroundImageFix" result="effect1_dropShadow_5_682"/>
<feBlend mode="normal" in="SourceGraphic" in2="effect1_dropShadow_5_682" result="shape"/>
</filter>
</defs>
</svg>
