<svg width="67" height="68" viewBox="0 0 67 68" fill="none" xmlns="http://www.w3.org/2000/svg">
<g filter="url(#filter0_d_5_684)">
<rect width="64" height="64" rx="32" fill="#8CE6DB"/>
<rect x="0.5" y="0.5" width="63" height="63" rx="31.5" stroke="#133834"/>
<path d="M31.5 48C22.3873 48 15 40.6126 15 31.5C15 22.3873 22.3873 15 31.5 15C40.6126 15 48 22.3873 48 31.5C47.9899 40.6085 40.6085 47.9899 31.5 48ZM23.448 42.2992L23.4397 42.3158C27.2068 45.1377 32.1753 45.7842 36.5391 44.0202C35.9136 40.6563 34.9865 37.3557 33.7687 34.1581C30.9718 35.1333 28.4148 36.693 26.2679 38.7336C25.2098 39.7355 24.2937 40.8774 23.5454 42.1276L23.5338 42.1458V42.1293L23.5041 42.187L23.4843 42.22L23.4728 42.2415L23.4447 42.3009L23.448 42.2992ZM39.3853 33.2243C38.5731 33.2254 37.7616 33.2805 36.9566 33.3892C38.0079 36.3271 38.8352 39.3403 39.4315 42.4032C42.2356 40.3819 44.1415 37.3473 44.7446 33.9436C42.9988 33.462 41.1962 33.2183 39.3853 33.2193V33.2243ZM17.998 31.4257V31.5181C18.0011 34.697 19.1259 37.7728 21.1743 40.2037C23.828 36.1043 27.7533 32.9888 32.3481 31.335L32.5445 31.2789C32.2524 30.6337 31.9785 30.0579 31.7046 29.52C27.3023 30.7544 22.7548 31.3952 18.1828 31.4257H17.998ZM38.8689 30.4258C40.9162 30.4334 42.9591 30.6201 44.9739 30.9836C44.869 28.1924 43.8927 25.5042 42.1821 23.2962C40.1859 25.5285 37.7015 27.27 34.9221 28.3848L34.9699 28.365L34.9188 28.3864C35.2141 29.0019 35.4732 29.5777 35.6893 30.0909C35.7405 30.213 35.7834 30.3186 35.823 30.4209L35.8906 30.5859C36.8795 30.4762 37.8739 30.4227 38.8689 30.4258ZM25.522 19.417C21.9338 21.1881 19.3167 24.4604 18.3775 28.3501C22.2227 28.2907 26.0493 27.8049 29.7873 26.9015H29.8088H29.8335L29.85 26.88L29.9391 26.8586H29.949L30.015 26.8453H30.0299H30.0414L30.076 26.8355L30.142 26.8189L30.18 26.8024L30.2163 26.7926H30.2328H30.2493C28.0498 22.92 25.7729 19.7635 25.5204 19.417H25.522ZM31.5 18.0343C30.5968 18.0321 29.6954 18.1177 28.8089 18.2901C30.5374 20.6852 32.1235 23.1799 33.5592 25.7613C36.1301 24.8456 38.4231 23.2856 40.2186 21.2304C37.7811 19.1689 34.6924 18.0367 31.5 18.0343Z" fill="black"/>
</g>
<defs>
<filter id="filter0_d_5_684" x="0" y="0" width="67" height="68" filterUnits="userSpaceOnUse" color-interpolation-filters="sRGB">
<feFlood flood-opacity="0" result="BackgroundImageFix"/>
<feColorMatrix in="SourceAlpha" type="matrix" values="0 0 0 0 0 0 0 0 0 0 0 0 0 0 0 0 0 0 127 0" result="hardAlpha"/>
<feOffset dx="3" dy="4"/>
<feComposite in2="hardAlpha" operator="out"/>
<feColorMatrix type="matrix" values="0 0 0 0 0.0555986 0 0 0 0 0.149942 0 0 0 0 0.140011 0 0 0 1 0"/>
<feBlend mode="normal" in2="BackgroundImageFix" result="effect1_dropShadow_5_684"/>
<feBlend mode="normal" in="SourceGraphic" in2="effect1_dropShadow_5_684" result="shape"/>
</filter>
</defs>
</svg>
