<svg width="67" height="68" viewBox="0 0 67 68" fill="none" xmlns="http://www.w3.org/2000/svg">
<g filter="url(#filter0_d_5_686)">
<rect width="64" height="64" rx="32" fill="#8CE6DB"/>
<rect x="0.5" y="0.5" width="63" height="63" rx="31.5" stroke="#133834"/>
<path d="M31.5049 46L23.2475 40.7475L31.4951 35.5L39.7426 40.7475L31.4951 45.9984L31.5049 46ZM39.7525 38.9984L31.5049 33.7492L39.7525 28.5L31.5049 23.2525L39.7525 18L48 23.2525L39.7525 28.5L48 33.7492L39.7525 38.9984ZM23.2475 38.9984L15 33.7492L23.2475 28.5L15 23.2525L23.2475 18L31.4951 23.2525L23.2475 28.4984L31.4951 33.7475L23.2475 38.9984Z" fill="black"/>
</g>
<defs>
<filter id="filter0_d_5_686" x="0" y="0" width="67" height="68" filterUnits="userSpaceOnUse" color-interpolation-filters="sRGB">
<feFlood flood-opacity="0" result="BackgroundImageFix"/>
<feColorMatrix in="SourceAlpha" type="matrix" values="0 0 0 0 0 0 0 0 0 0 0 0 0 0 0 0 0 0 127 0" result="hardAlpha"/>
<feOffset dx="3" dy="4"/>
<feComposite in2="hardAlpha" operator="out"/>
<feColorMatrix type="matrix" values="0 0 0 0 0.0555986 0 0 0 0 0.149942 0 0 0 0 0.140011 0 0 0 1 0"/>
<feBlend mode="normal" in2="BackgroundImageFix" result="effect1_dropShadow_5_686"/>
<feBlend mode="normal" in="SourceGraphic" in2="effect1_dropShadow_5_686" result="shape"/>
</filter>
</defs>
</svg>
