<svg width="67" height="68" viewBox="0 0 67 68" fill="none" xmlns="http://www.w3.org/2000/svg">
<g filter="url(#filter0_d_5_700)">
<rect width="64" height="64" rx="32" fill="#8CE6DB"/>
<rect x="0.5" y="0.5" width="63" height="63" rx="31.5" stroke="#133834"/>
<path d="M45.0073 48H17.9908C16.3392 47.998 15.001 46.6589 15 45.0073V17.9908C15.002 16.3399 16.3399 15.002 17.9908 15H45.0055C46.6571 15.002 47.996 16.3393 48 17.9908V45.0073C47.998 46.6593 46.6593 47.998 45.0073 48ZM21.7248 27.2238L21.0128 29.8477H23.3578L21.8422 36.0239C21.7308 36.5123 21.6693 37.0109 21.6587 37.5119C21.5734 38.318 21.8619 39.1189 22.4418 39.6855C23.0216 40.2521 23.829 40.5222 24.633 40.4184C26.339 40.3442 27.8714 39.353 28.6386 37.8275L28.0386 40.2129H31.3615L33.2569 32.6147C33.734 30.6698 34.6734 29.6789 36.0441 29.6789C36.531 29.6426 37.0094 29.8219 37.3523 30.1696C37.6954 30.5171 37.8685 30.9978 37.8257 31.4844C37.8305 31.8457 37.7778 32.2055 37.6697 32.5505L36.7009 36.0477C36.5611 36.532 36.4907 37.0336 36.4918 37.5376C36.4393 38.3426 36.7474 39.1294 37.3327 39.6844C37.918 40.2397 38.7198 40.5059 39.5211 40.411C41.411 40.411 42.7285 39.1266 43.4422 36.5927L42.145 36.0918C41.6385 37.5395 41.0991 38.2441 40.4936 38.2441C40.0514 38.2441 39.8184 37.9376 39.8184 37.356C39.8307 37.0509 39.8769 36.7481 39.956 36.4532L40.9101 33.0441C41.1264 32.3426 41.2376 31.6129 41.2404 30.8789C41.3494 29.9035 41.0424 28.9272 40.3945 28.19C39.7466 27.4527 38.818 27.0226 37.8367 27.0055C35.9134 27.2681 34.2529 28.4843 33.4221 30.2386L34.0826 27.2715H28.967L28.2496 29.8404H30.6239L29.156 35.6899C28.6433 37.127 27.3277 38.1233 25.8055 38.2275C25.7489 38.2283 25.6924 38.2241 25.6367 38.2147C25.1908 38.1101 24.9321 37.9395 24.9321 37.3853C24.9425 36.9272 25.0103 36.4723 25.1339 36.0312L27.3651 27.2238H21.7248ZM26.0275 21.422C25.313 21.422 24.6527 21.8032 24.2954 22.422C23.9382 23.0408 23.9382 23.8032 24.2954 24.422C24.6527 25.0408 25.313 25.422 26.0275 25.422V25.3761C26.5624 25.3805 27.0775 25.1734 27.4605 24.8C27.836 24.4291 28.0459 23.9223 28.0422 23.3945C28.0281 22.2945 27.1275 21.4128 26.0275 21.422Z" fill="black"/>
</g>
<defs>
<filter id="filter0_d_5_700" x="0" y="0" width="67" height="68" filterUnits="userSpaceOnUse" color-interpolation-filters="sRGB">
<feFlood flood-opacity="0" result="BackgroundImageFix"/>
<feColorMatrix in="SourceAlpha" type="matrix" values="0 0 0 0 0 0 0 0 0 0 0 0 0 0 0 0 0 0 127 0" result="hardAlpha"/>
<feOffset dx="3" dy="4"/>
<feComposite in2="hardAlpha" operator="out"/>
<feColorMatrix type="matrix" values="0 0 0 0 0.0555986 0 0 0 0 0.149942 0 0 0 0 0.140011 0 0 0 1 0"/>
<feBlend mode="normal" in2="BackgroundImageFix" result="effect1_dropShadow_5_700"/>
<feBlend mode="normal" in="SourceGraphic" in2="effect1_dropShadow_5_700" result="shape"/>
</filter>
</defs>
</svg>
