<svg width="67" height="68" viewBox="0 0 67 68" fill="none" xmlns="http://www.w3.org/2000/svg">
<g filter="url(#filter0_d_5_708)">
<rect width="64" height="64" rx="32" fill="#8CE6DB"/>
<rect x="0.5" y="0.5" width="63" height="63" rx="31.5" stroke="#133834"/>
<path d="M22.0702 48V42.1535C18.2823 39.3767 16.0312 34.9718 16 30.2753C16 21.853 23.3333 15 32.335 15C41.3367 15 48.67 21.853 48.6719 30.2753C48.6737 38.6977 41.3385 45.547 32.3369 45.547C30.751 45.5492 29.1725 45.3338 27.6453 44.9072L22.0738 48H22.0702ZM30.6117 26.1265L21.6925 35.592L29.8289 31.093L34.0455 35.482L42.9665 26.0183L34.8375 30.5173L30.6117 26.1265Z" fill="black"/>
</g>
<defs>
<filter id="filter0_d_5_708" x="0" y="0" width="67" height="68" filterUnits="userSpaceOnUse" color-interpolation-filters="sRGB">
<feFlood flood-opacity="0" result="BackgroundImageFix"/>
<feColorMatrix in="SourceAlpha" type="matrix" values="0 0 0 0 0 0 0 0 0 0 0 0 0 0 0 0 0 0 127 0" result="hardAlpha"/>
<feOffset dx="3" dy="4"/>
<feComposite in2="hardAlpha" operator="out"/>
<feColorMatrix type="matrix" values="0 0 0 0 0.0555986 0 0 0 0 0.149942 0 0 0 0 0.140011 0 0 0 1 0"/>
<feBlend mode="normal" in2="BackgroundImageFix" result="effect1_dropShadow_5_708"/>
<feBlend mode="normal" in="SourceGraphic" in2="effect1_dropShadow_5_708" result="shape"/>
</filter>
</defs>
</svg>
