<svg width="67" height="68" viewBox="0 0 67 68" fill="none" xmlns="http://www.w3.org/2000/svg">
<g filter="url(#filter0_d_5_710)">
<rect width="64" height="64" rx="32" fill="#8CE6DB"/>
<rect x="0.5" y="0.5" width="63" height="63" rx="31.5" stroke="#133834"/>
<path d="M30.8811 47.9988H26.2585C26.0236 48.0122 25.7972 47.9095 25.6523 47.7241C25.5055 47.536 25.4456 47.2943 25.4875 47.0593C25.5607 46.6179 25.6523 46.0355 25.7677 45.2956C25.8318 44.8891 25.9014 44.4477 25.9765 43.9642C26.2054 42.499 26.3611 41.5156 26.4655 40.8727C26.507 40.6152 26.5564 40.3099 26.6138 39.957V39.9204C26.7078 39.3356 26.8226 38.625 26.9581 37.7886L27.1413 36.6549V36.6458C27.2731 35.8315 27.3769 35.1837 27.4526 34.7026C27.461 34.5048 27.5512 34.3195 27.7015 34.1906C27.8518 34.0618 28.0489 34.0012 28.2456 34.0232H31.0295C32.3649 34.0376 33.698 33.9074 35.0055 33.6349C36.9739 33.2421 38.8001 32.3252 40.291 30.9812C41.5974 29.7263 42.5779 28.1716 43.1481 26.4521C43.4263 25.6532 43.6418 24.8339 43.7927 24.0016C43.8055 23.9247 43.8202 23.8807 43.8385 23.8661C43.8493 23.852 43.8663 23.8438 43.8843 23.8441H43.9026C43.9427 23.861 43.9808 23.8825 44.0162 23.9082C44.9769 24.6361 45.6199 25.7068 45.811 26.8971C46.0276 28.1423 46.0027 29.4175 45.7377 30.6533C45.3908 33.045 44.1812 35.2272 42.3367 36.7886C40.2991 38.241 37.8303 38.9613 35.3315 38.8325H34.5275C34.2281 38.8301 33.9385 38.9384 33.7143 39.1365C33.4818 39.3384 33.327 39.6149 33.2766 39.9186L33.2015 40.2739L32.1888 46.6436L32.1503 46.9201C32.0979 47.2271 31.9366 47.5047 31.6961 47.7021C31.4696 47.897 31.1798 48.0025 30.8811 47.9988ZM24.3282 44.336H18.898C18.6388 44.3415 18.3909 44.2307 18.2222 44.0338C18.0463 43.8406 17.9687 43.5774 18.0116 43.3195L22.2806 16.2327C22.3343 15.8851 22.5151 15.5699 22.7879 15.3481C23.0515 15.1208 23.3887 14.9972 23.7366 15H34.7509C35.3548 15.0239 35.9549 15.1042 36.5439 15.24C37.2457 15.3729 37.9342 15.569 38.6006 15.8261C39.8136 16.255 40.8654 17.0465 41.6133 18.0934C42.3225 19.162 42.6856 20.4229 42.6536 21.705C42.6224 23.1919 42.3369 24.6624 41.8093 26.0528C40.9679 28.7536 38.9048 30.9009 36.2399 31.8493C34.744 32.3558 33.1765 32.6186 31.5972 32.6276C31.5789 32.6386 30.7914 32.6404 29.9489 32.6404L28.3006 32.6276C27.2133 32.5166 26.2411 33.3062 26.1266 34.3931C26.1028 34.492 25.5461 37.9589 24.5608 44.1528C24.5608 44.2116 24.5345 44.2673 24.4891 44.3045C24.4437 44.3418 24.3839 44.3567 24.3263 44.3451L24.3282 44.336Z" fill="black"/>
</g>
<defs>
<filter id="filter0_d_5_710" x="0" y="0" width="67" height="68" filterUnits="userSpaceOnUse" color-interpolation-filters="sRGB">
<feFlood flood-opacity="0" result="BackgroundImageFix"/>
<feColorMatrix in="SourceAlpha" type="matrix" values="0 0 0 0 0 0 0 0 0 0 0 0 0 0 0 0 0 0 127 0" result="hardAlpha"/>
<feOffset dx="3" dy="4"/>
<feComposite in2="hardAlpha" operator="out"/>
<feColorMatrix type="matrix" values="0 0 0 0 0.0555986 0 0 0 0 0.149942 0 0 0 0 0.140011 0 0 0 1 0"/>
<feBlend mode="normal" in2="BackgroundImageFix" result="effect1_dropShadow_5_710"/>
<feBlend mode="normal" in="SourceGraphic" in2="effect1_dropShadow_5_710" result="shape"/>
</filter>
</defs>
</svg>
