<svg width="67" height="68" viewBox="0 0 67 68" fill="none" xmlns="http://www.w3.org/2000/svg">
<g filter="url(#filter0_d_5_714)">
<rect width="64" height="64" rx="32" fill="#8CE6DB"/>
<rect x="0.5" y="0.5" width="63" height="63" rx="31.5" stroke="#133834"/>
<path d="M31.5 48C22.3873 48 15 40.6126 15 31.5C15 22.3873 22.3873 15 31.5 15C40.6126 15 48 22.3873 48 31.5C47.9899 40.6085 40.6085 47.9899 31.5 48ZM22.9316 29.096C21.9442 29.0964 21.0572 29.6995 20.6934 30.6173C20.3296 31.5351 20.5627 32.5821 21.2816 33.2589C21.4716 33.4389 21.6901 33.5861 21.9283 33.6945C21.9076 33.9356 21.9076 34.1778 21.9283 34.4188C21.9283 38.1148 26.2431 41.1211 31.5462 41.1211C36.8493 41.1211 41.1657 38.1148 41.1657 34.4188C41.1848 34.1778 41.1848 33.9356 41.1657 33.6945C42.1671 33.2079 42.6969 32.0915 42.4403 31.0081C42.1838 29.9247 41.2098 29.1643 40.0965 29.1785H40.009C39.418 29.2002 38.8557 29.4395 38.43 29.85C36.5531 28.5737 34.3466 27.8688 32.0775 27.8205L33.15 22.6725L36.6777 23.415C36.7686 24.2516 37.4747 24.8858 38.3162 24.8868C38.3762 24.8867 38.4363 24.8834 38.496 24.8769C39.3708 24.7891 40.0231 24.0307 39.9792 23.1526C39.9351 22.2744 39.2103 21.5852 38.331 21.5852C38.2686 21.5867 38.2064 21.5916 38.1446 21.6C37.6215 21.6556 37.1564 21.9571 36.8922 22.4118L32.853 21.6C32.8172 21.5923 32.7807 21.5884 32.7441 21.5884C32.5055 21.5913 32.3004 21.7581 32.2491 21.991L31.0149 27.7215C28.7178 27.754 26.4806 28.4591 24.5799 29.7493C24.1344 29.3284 23.5444 29.0946 22.9316 29.096ZM31.797 38.9646C31.7046 38.9646 31.6105 38.9646 31.5181 38.9646C31.4257 38.9646 31.3317 38.9646 31.2393 38.9646C29.87 38.9593 28.5389 38.512 27.4443 37.6891C27.3688 37.5981 27.3328 37.4806 27.3443 37.3629C27.3558 37.2453 27.4137 37.1369 27.5054 37.0622C27.5852 36.9975 27.6847 36.9618 27.7875 36.9615C27.8903 36.9615 27.99 36.997 28.0696 37.0622C28.9946 37.74 30.1123 38.1036 31.2591 38.1C31.3395 38.1 31.4196 38.1 31.5 38.1C31.5973 38.1 31.6964 38.1 31.7937 38.1C32.9256 38.1018 34.0293 37.7474 34.9485 37.0869C35.0355 36.9981 35.1543 36.9483 35.2785 36.9483C35.4027 36.9483 35.5215 36.9981 35.6085 37.0869C35.7875 37.2719 35.7837 37.5666 35.6002 37.7469V37.6809C34.5051 38.5094 33.1703 38.9593 31.797 38.963V38.9646ZM35.3065 34.932H35.2801L35.2934 34.8677C34.5675 34.8181 33.974 34.2702 33.8666 33.5508C33.759 32.8312 34.1667 32.1339 34.8462 31.8744C35.5258 31.615 36.2946 31.8633 36.6939 32.4714C37.0933 33.0794 37.0158 33.8834 36.5077 34.404C36.2124 34.7264 35.7997 34.9167 35.3626 34.932H35.3049H35.3065ZM27.6555 34.8C26.7442 34.8 26.0055 34.0613 26.0055 33.15C26.0055 32.2387 26.7442 31.5 27.6555 31.5C28.5668 31.5 29.3055 32.2387 29.3055 33.15C29.3055 34.0613 28.5668 34.8 27.6555 34.8Z" fill="black"/>
</g>
<defs>
<filter id="filter0_d_5_714" x="0" y="0" width="67" height="68" filterUnits="userSpaceOnUse" color-interpolation-filters="sRGB">
<feFlood flood-opacity="0" result="BackgroundImageFix"/>
<feColorMatrix in="SourceAlpha" type="matrix" values="0 0 0 0 0 0 0 0 0 0 0 0 0 0 0 0 0 0 127 0" result="hardAlpha"/>
<feOffset dx="3" dy="4"/>
<feComposite in2="hardAlpha" operator="out"/>
<feColorMatrix type="matrix" values="0 0 0 0 0.0555986 0 0 0 0 0.149942 0 0 0 0 0.140011 0 0 0 1 0"/>
<feBlend mode="normal" in2="BackgroundImageFix" result="effect1_dropShadow_5_714"/>
<feBlend mode="normal" in="SourceGraphic" in2="effect1_dropShadow_5_714" result="shape"/>
</filter>
</defs>
</svg>
