<svg width="67" height="68" viewBox="0 0 67 68" fill="none" xmlns="http://www.w3.org/2000/svg">
<g filter="url(#filter0_d_5_716)">
<rect width="64" height="64" rx="32" fill="#8CE6DB"/>
<rect x="0.5" y="0.5" width="63" height="63" rx="31.5" stroke="#133834"/>
<path d="M31.4973 46.6965H31.4131C31.1673 46.6781 30.9335 46.5829 30.745 46.4243C30.6932 46.3804 30.6458 46.3318 30.6031 46.2791L15.2763 28.0092C15.1568 27.8726 15.0724 27.7089 15.0305 27.5324C15.0305 27.5109 15.0206 27.4895 15.0156 27.468C14.9689 27.1917 15.0278 26.9078 15.1806 26.6728L15.212 26.6266L21.2008 18.1549C21.2222 18.1219 21.2437 18.0922 21.2684 18.0658C21.4436 17.8576 21.6867 17.718 21.9547 17.6715C22.0006 17.6645 22.0469 17.6606 22.0933 17.6599L31.4148 17H31.4973H31.5781L40.9012 17.6599C40.9526 17.6628 41.004 17.6695 41.0546 17.6797C41.3488 17.7345 41.6101 17.9013 41.7838 18.145L47.7842 26.6316C47.7965 26.648 47.8081 26.6651 47.8188 26.6827C47.9561 26.8931 48.0183 27.1436 47.9953 27.3938C47.9882 27.4579 47.9762 27.5213 47.959 27.5835C47.9138 27.7417 47.8338 27.8877 47.7248 28.0108L32.3931 46.2775C32.3675 46.3095 32.34 46.3398 32.3106 46.3682C32.2143 46.4618 32.1026 46.5383 31.9807 46.5942C31.8805 46.6395 31.7743 46.67 31.6655 46.685C31.6098 46.6927 31.5535 46.6965 31.4973 46.6965ZM24.8089 28.4018L31.4973 42.8409L38.1856 28.4018H24.8089ZM40.7131 28.4018L36.1563 38.2396L44.4054 28.4018H40.7131ZM18.5842 28.4018L26.8332 38.2396L22.2814 28.4018H18.5842ZM41.6733 21.9395L41.2443 26.1482H44.6462L41.6733 21.9395ZM31.4973 20.0835L26.3366 26.1482H36.6579L31.4973 20.0835ZM21.3212 21.9395L18.3483 26.1482H21.7502L21.3212 21.9395ZM33.934 19.4269L39.0055 25.3876L39.5813 19.8228L33.934 19.4269ZM29.0572 19.4269L23.4132 19.8228L23.9823 25.3876L29.0572 19.4269Z" fill="black"/>
</g>
<defs>
<filter id="filter0_d_5_716" x="0" y="0" width="67" height="68" filterUnits="userSpaceOnUse" color-interpolation-filters="sRGB">
<feFlood flood-opacity="0" result="BackgroundImageFix"/>
<feColorMatrix in="SourceAlpha" type="matrix" values="0 0 0 0 0 0 0 0 0 0 0 0 0 0 0 0 0 0 127 0" result="hardAlpha"/>
<feOffset dx="3" dy="4"/>
<feComposite in2="hardAlpha" operator="out"/>
<feColorMatrix type="matrix" values="0 0 0 0 0.0555986 0 0 0 0 0.149942 0 0 0 0 0.140011 0 0 0 1 0"/>
<feBlend mode="normal" in2="BackgroundImageFix" result="effect1_dropShadow_5_716"/>
<feBlend mode="normal" in="SourceGraphic" in2="effect1_dropShadow_5_716" result="shape"/>
</filter>
</defs>
</svg>
