<svg width="67" height="68" viewBox="0 0 67 68" fill="none" xmlns="http://www.w3.org/2000/svg">
<g filter="url(#filter0_d_5_718)">
<rect width="64" height="64" rx="32" fill="#8CE6DB"/>
<rect x="0.5" y="0.5" width="63" height="63" rx="31.5" stroke="#133834"/>
<path d="M35.8503 47.9984C33.9383 47.9919 32.3913 46.442 32.3905 44.5318V41.0636H35.8503C37.7675 41.0636 39.3216 42.6163 39.3216 44.5318C39.3216 46.4471 37.7675 48 35.8503 48V47.9984ZM27.1481 47.9984C25.236 47.9919 23.6891 46.442 23.6882 44.5318V35.8506C23.6882 34.6135 24.3488 33.4705 25.421 32.852C26.4933 32.2334 27.8143 32.2334 28.8865 32.852C29.9589 33.4705 30.6194 34.6135 30.6194 35.8506V44.5318C30.6184 46.4466 29.0646 47.9984 27.1481 47.9984ZM44.5295 39.3188H35.8503C33.9336 39.3188 32.3798 37.7664 32.3798 35.8514C32.3798 33.9364 33.9336 32.384 35.8503 32.384H44.5295C46.4462 32.384 48 33.9364 48 35.8514C48 37.7664 46.4462 39.3188 44.5295 39.3188ZM18.4705 39.3188C16.5538 39.3188 15 37.7664 15 35.8514C15 33.9364 16.5538 32.384 18.4705 32.384H21.9303V35.8506C21.9303 37.7647 20.3782 39.317 18.4623 39.3188H18.4705ZM44.5295 30.6128H41.0697V27.1462C41.0751 25.2385 42.6266 23.6958 44.5361 23.6994C46.4456 23.7031 47.9911 25.2516 47.9893 27.1594C47.9875 29.0672 46.439 30.6128 44.5295 30.6128ZM35.8503 30.6128C33.9383 30.6064 32.3913 29.0565 32.3905 27.1462V18.465C32.3905 17.228 33.051 16.0849 34.1232 15.4664C35.1956 14.8479 36.5166 14.8479 37.5888 15.4664C38.6611 16.0849 39.3216 17.228 39.3216 18.465V27.1462C39.3207 29.0611 37.7669 30.6128 35.8503 30.6128ZM27.1481 30.6128H18.4705C16.5538 30.6128 15 29.0605 15 27.1454C15 25.2304 16.5538 23.678 18.4705 23.678H27.1481C29.0648 23.678 30.6186 25.2304 30.6186 27.1454C30.6186 29.0605 29.0648 30.6128 27.1481 30.6128ZM30.6079 21.9332H27.1481C25.7439 21.9372 24.4758 21.0953 23.9356 19.8005C23.3953 18.5056 23.6894 17.0131 24.6806 16.0195C25.6718 15.0259 27.1647 14.7271 28.4625 15.2626C29.7604 15.798 30.6072 17.0622 30.6079 18.465V21.9316V21.9332Z" fill="black"/>
</g>
<defs>
<filter id="filter0_d_5_718" x="0" y="0" width="67" height="68" filterUnits="userSpaceOnUse" color-interpolation-filters="sRGB">
<feFlood flood-opacity="0" result="BackgroundImageFix"/>
<feColorMatrix in="SourceAlpha" type="matrix" values="0 0 0 0 0 0 0 0 0 0 0 0 0 0 0 0 0 0 127 0" result="hardAlpha"/>
<feOffset dx="3" dy="4"/>
<feComposite in2="hardAlpha" operator="out"/>
<feColorMatrix type="matrix" values="0 0 0 0 0.0555986 0 0 0 0 0.149942 0 0 0 0 0.140011 0 0 0 1 0"/>
<feBlend mode="normal" in2="BackgroundImageFix" result="effect1_dropShadow_5_718"/>
<feBlend mode="normal" in="SourceGraphic" in2="effect1_dropShadow_5_718" result="shape"/>
</filter>
</defs>
</svg>
