<svg width="67" height="68" viewBox="0 0 67 68" fill="none" xmlns="http://www.w3.org/2000/svg">
<g filter="url(#filter0_d_5_720)">
<rect width="64" height="64" rx="32" fill="#8CE6DB"/>
<rect x="0.5" y="0.5" width="63" height="63" rx="31.5" stroke="#133834"/>
<path d="M39.9297 21.2859C40.5199 23.4702 40.6596 25.7528 40.3401 27.9935V28.0743C40.3212 28.3254 40.3093 28.5524 40.299 28.7794C40.4681 28.8699 40.6582 28.9127 40.8496 28.9033C41.3452 28.8579 41.8275 28.7172 42.2703 28.4888C42.4685 28.3902 42.6871 28.3407 42.908 28.3443C43.1469 28.3405 43.3842 28.3827 43.6073 28.4681C44.1568 28.5954 44.5634 29.0625 44.616 29.6274C44.6388 30.2488 44.0831 30.7871 42.9491 31.2423C42.8277 31.2819 42.6601 31.3472 42.4772 31.4143C41.8566 31.6018 40.9094 31.9114 40.6427 32.534C40.5199 32.9409 40.5825 33.3817 40.8136 33.7379L40.8342 33.7603C42.0517 36.5422 44.4875 38.5951 47.4234 39.3138C47.7645 39.3683 48.0117 39.67 47.9996 40.0172C47.9979 40.1239 47.977 40.2293 47.938 40.3285C47.608 41.1145 46.189 41.7044 43.6124 42.0845C43.5093 42.3387 43.4336 42.6034 43.3868 42.874C43.344 43.1326 43.2828 43.3877 43.2038 43.6376C43.1235 43.989 42.7983 44.2272 42.4413 44.1966H42.4003C42.151 44.185 41.9032 44.151 41.66 44.0951C41.0846 43.9702 40.4977 43.908 39.9092 43.9093C39.4898 43.9035 39.0706 43.9381 38.6577 44.0125C37.789 44.2415 36.9803 44.6582 36.288 45.2337C35.0136 46.3117 33.4193 46.9331 31.7556 47C31.6735 47 31.5846 46.9794 31.506 46.9794H31.2991C29.6412 46.9161 28.0538 46.2878 26.7974 45.1976C26.1133 44.6221 25.312 44.2047 24.45 43.9747C24.0282 43.9114 23.6027 43.8768 23.1763 43.8715C22.5878 43.8803 22.0017 43.9494 21.4272 44.0779C21.1832 44.1359 20.9341 44.1697 20.6835 44.1794C20.3115 44.2071 19.9732 43.963 19.8799 43.5998C19.7979 43.3349 19.7586 43.0614 19.697 42.8155C19.6489 42.5456 19.5727 42.2816 19.4696 42.0278C16.8315 41.7199 15.4125 41.1386 15.0842 40.332C15.0359 40.2348 15.0074 40.129 15.0004 40.0207C14.9884 39.6734 15.2355 39.3718 15.5766 39.3172C18.5139 38.5981 20.9502 36.5429 22.1658 33.7585L22.1812 33.7155C22.421 33.3628 22.4842 32.9179 22.3522 32.5116C22.0855 31.9114 21.1366 31.6018 20.5228 31.3937C20.3593 31.35 20.1997 31.2924 20.0458 31.2217C18.5241 30.6197 18.3173 29.9352 18.401 29.4605C18.6435 28.7855 19.2955 28.3488 20.0082 28.3839C20.1888 28.383 20.3677 28.4181 20.5348 28.4871C21.0064 28.7306 21.5236 28.8718 22.053 28.9016C22.2764 28.9083 22.4975 28.8555 22.6941 28.7485L22.624 27.9608C22.3058 25.7263 22.446 23.45 23.0361 21.2721C24.4235 18.0352 27.6159 15.9608 31.1196 16.0196L31.6923 16.0006H31.7761C35.3017 15.9582 38.5113 18.0388 39.9297 21.2859Z" fill="black"/>
</g>
<defs>
<filter id="filter0_d_5_720" x="0" y="0" width="67" height="68" filterUnits="userSpaceOnUse" color-interpolation-filters="sRGB">
<feFlood flood-opacity="0" result="BackgroundImageFix"/>
<feColorMatrix in="SourceAlpha" type="matrix" values="0 0 0 0 0 0 0 0 0 0 0 0 0 0 0 0 0 0 127 0" result="hardAlpha"/>
<feOffset dx="3" dy="4"/>
<feComposite in2="hardAlpha" operator="out"/>
<feColorMatrix type="matrix" values="0 0 0 0 0.0555986 0 0 0 0 0.149942 0 0 0 0 0.140011 0 0 0 1 0"/>
<feBlend mode="normal" in2="BackgroundImageFix" result="effect1_dropShadow_5_720"/>
<feBlend mode="normal" in="SourceGraphic" in2="effect1_dropShadow_5_720" result="shape"/>
</filter>
</defs>
</svg>
