<svg width="67" height="68" viewBox="0 0 67 68" fill="none" xmlns="http://www.w3.org/2000/svg">
<g filter="url(#filter0_d_5_724)">
<rect width="64" height="64" rx="32" fill="#8CE6DB"/>
<rect x="0.5" y="0.5" width="63" height="63" rx="31.5" stroke="#133834"/>
<path d="M31.5007 47.9994C24.8264 48.0082 18.8061 43.9901 16.2534 37.8234C13.7007 31.6565 15.1199 24.5589 19.8477 19.8479C24.0081 15.6725 30.0819 14.0372 35.7763 15.5593C41.4706 17.0815 45.9185 21.5292 47.4407 27.2236C48.9629 32.9181 47.3275 38.9918 43.152 43.1523C40.0715 46.2591 35.876 48.0046 31.5007 47.9994ZM29.0531 36.8881C32.0881 36.8249 35.0797 37.6169 37.6856 39.1738C37.8463 39.2816 38.0354 39.3391 38.2289 39.3389C38.5815 39.33 38.9059 39.1437 39.091 38.8435C39.2352 38.5652 39.2601 38.2405 39.1604 37.9434C39.076 37.7175 38.9002 37.5377 38.6765 37.448C35.7424 35.7027 32.3771 34.8163 28.964 34.8898C26.8463 34.906 24.7368 35.1547 22.6734 35.6313C22.1324 35.7755 21.8035 36.323 21.9302 36.8683C22.0579 37.3084 22.4488 37.6206 22.9062 37.6478C22.994 37.6475 23.0813 37.6348 23.1655 37.6098C25.0951 37.1507 27.0699 36.9086 29.0531 36.8881ZM28.7394 31.9732C32.4524 31.9295 36.11 32.8764 39.3354 34.7164C39.5192 34.85 39.7407 34.9217 39.9679 34.9212C40.413 34.9038 40.8229 34.6749 41.0711 34.3052C41.265 34.0223 41.3255 33.6687 41.2363 33.3374C41.1758 33.0502 40.9957 32.8026 40.7408 32.657C37.0938 30.5508 32.9489 29.461 28.7377 29.5009C26.5177 29.4874 24.3077 29.7989 22.1779 30.4258C21.5235 30.6411 21.1581 31.3369 21.3522 31.998C21.5142 32.5323 22.0184 32.888 22.5759 32.8617C22.6945 32.8629 22.8127 32.849 22.9277 32.8205C24.8101 32.2419 26.7702 31.9562 28.7394 31.9732ZM29.0515 26.8734C33.286 26.7513 37.4808 27.7179 41.2346 29.681C41.4877 29.8192 41.772 29.8904 42.0604 29.8874C42.5725 29.8981 43.0605 29.6705 43.3816 29.2714C43.5813 28.9061 43.6333 28.4782 43.5269 28.0757C43.4275 27.6741 43.1671 27.3313 42.8069 27.1277C38.5737 24.8778 33.8306 23.7605 29.0383 23.8842C26.3847 23.8569 23.7402 24.1981 21.1804 24.8982C20.4614 25.1206 20.0156 25.8381 20.1348 26.5812C20.2541 27.3243 20.9019 27.8664 21.6544 27.8527C21.8009 27.8529 21.9467 27.8317 22.0871 27.79C24.3518 27.1479 26.6978 26.8386 29.0515 26.8717V26.8734Z" fill="black"/>
</g>
<defs>
<filter id="filter0_d_5_724" x="0" y="0" width="67" height="68" filterUnits="userSpaceOnUse" color-interpolation-filters="sRGB">
<feFlood flood-opacity="0" result="BackgroundImageFix"/>
<feColorMatrix in="SourceAlpha" type="matrix" values="0 0 0 0 0 0 0 0 0 0 0 0 0 0 0 0 0 0 127 0" result="hardAlpha"/>
<feOffset dx="3" dy="4"/>
<feComposite in2="hardAlpha" operator="out"/>
<feColorMatrix type="matrix" values="0 0 0 0 0.0555986 0 0 0 0 0.149942 0 0 0 0 0.140011 0 0 0 1 0"/>
<feBlend mode="normal" in2="BackgroundImageFix" result="effect1_dropShadow_5_724"/>
<feBlend mode="normal" in="SourceGraphic" in2="effect1_dropShadow_5_724" result="shape"/>
</filter>
</defs>
</svg>
