<svg width="67" height="68" viewBox="0 0 67 68" fill="none" xmlns="http://www.w3.org/2000/svg">
<g filter="url(#filter0_d_5_726)">
<rect width="64" height="64" rx="32" fill="#8CE6DB"/>
<rect x="0.5" y="0.5" width="63" height="63" rx="31.5" stroke="#133834"/>
<path d="M44.5686 48H18V36.2667H20.94V45.0667H41.6286V36.2667H44.5686V48ZM38.6885 42.1333H23.88V39.2H38.6812V42.1333H38.6885ZM38.6885 38.4667L24.2475 35.4618L24.8686 32.6165L39.3133 35.6268L38.683 38.4667H38.6885ZM39.4952 34.7321L26.1181 28.4988V28.4878L27.3566 25.8167L40.7355 32.05L39.4989 34.734L39.4952 34.7321ZM41.1912 31.3496L29.8538 21.9263H29.8703L31.7317 19.7007L43.0545 29.1166L41.1857 31.3515L41.1912 31.3496ZM43.5947 28.5996L34.7618 16.7765L37.1689 15L46 26.8268L43.5892 28.607L43.5947 28.5996Z" fill="black"/>
</g>
<defs>
<filter id="filter0_d_5_726" x="0" y="0" width="67" height="68" filterUnits="userSpaceOnUse" color-interpolation-filters="sRGB">
<feFlood flood-opacity="0" result="BackgroundImageFix"/>
<feColorMatrix in="SourceAlpha" type="matrix" values="0 0 0 0 0 0 0 0 0 0 0 0 0 0 0 0 0 0 127 0" result="hardAlpha"/>
<feOffset dx="3" dy="4"/>
<feComposite in2="hardAlpha" operator="out"/>
<feColorMatrix type="matrix" values="0 0 0 0 0.0555986 0 0 0 0 0.149942 0 0 0 0 0.140011 0 0 0 1 0"/>
<feBlend mode="normal" in2="BackgroundImageFix" result="effect1_dropShadow_5_726"/>
<feBlend mode="normal" in="SourceGraphic" in2="effect1_dropShadow_5_726" result="shape"/>
</filter>
</defs>
</svg>
