<svg width="67" height="68" viewBox="0 0 67 68" fill="none" xmlns="http://www.w3.org/2000/svg">
<g filter="url(#filter0_d_5_728)">
<rect width="64" height="64" rx="32" fill="#8CE6DB"/>
<rect x="0.5" y="0.5" width="63" height="63" rx="31.5" stroke="#133834"/>
<path d="M43.875 48H19.125C16.8481 47.9969 15.003 46.152 15 43.875V19.125C15.003 16.8481 16.8481 15.003 19.125 15H43.875C46.152 15.003 47.9969 16.8481 48 19.125V43.875C47.9969 46.152 46.152 47.9969 43.875 48ZM21.27 19.29C20.1769 19.291 19.291 20.1769 19.29 21.27V39.9975C19.291 41.0905 20.1769 41.9764 21.27 41.9775H27.375C28.468 41.9764 29.3539 41.0905 29.355 39.9975V21.27C29.3539 20.1769 28.468 19.291 27.375 19.29H21.27ZM35.625 19.29C34.532 19.291 33.6461 20.1769 33.645 21.27V31.7475C33.6461 32.8405 34.532 33.7264 35.625 33.7275H41.73C42.823 33.7264 43.7089 32.8405 43.71 31.7475V21.27C43.7089 20.1769 42.823 19.291 41.73 19.29H35.625Z" fill="black"/>
</g>
<defs>
<filter id="filter0_d_5_728" x="0" y="0" width="67" height="68" filterUnits="userSpaceOnUse" color-interpolation-filters="sRGB">
<feFlood flood-opacity="0" result="BackgroundImageFix"/>
<feColorMatrix in="SourceAlpha" type="matrix" values="0 0 0 0 0 0 0 0 0 0 0 0 0 0 0 0 0 0 127 0" result="hardAlpha"/>
<feOffset dx="3" dy="4"/>
<feComposite in2="hardAlpha" operator="out"/>
<feColorMatrix type="matrix" values="0 0 0 0 0.0555986 0 0 0 0 0.149942 0 0 0 0 0.140011 0 0 0 1 0"/>
<feBlend mode="normal" in2="BackgroundImageFix" result="effect1_dropShadow_5_728"/>
<feBlend mode="normal" in="SourceGraphic" in2="effect1_dropShadow_5_728" result="shape"/>
</filter>
</defs>
</svg>
